<svg width="20" height="16" viewBox="0 0 20 16" fill="none" xmlns="http://www.w3.org/2000/svg">
<path d="M1 4.2002V11.8002C1 12.9203 1 13.4801 1.21799 13.9079C1.40973 14.2842 1.71547 14.5905 2.0918 14.7822C2.5192 15 3.07899 15 4.19691 15H15.8031C16.921 15 17.48 15 17.9074 14.7822C18.2837 14.5905 18.5905 14.2842 18.7822 13.9079C19 13.4805 19 12.9215 19 11.8036V4.19691C19 3.07899 19 2.5192 18.7822 2.0918C18.5905 1.71547 18.2837 1.40973 17.9074 1.21799C17.4796 1 16.9203 1 15.8002 1H4.2002C3.08009 1 2.51962 1 2.0918 1.21799C1.71547 1.40973 1.40973 1.71547 1.21799 2.0918C1 2.51962 1 3.08009 1 4.2002Z" fill="url(#paint0_linear_30_40)" fill-opacity="0.2"/>
<path d="M2 2L8.10764 6.61227L8.10967 6.61396C8.78785 7.11128 9.12714 7.3601 9.49876 7.45621C9.82723 7.54117 10.1725 7.54117 10.501 7.45621C10.8729 7.36001 11.2132 7.11047 11.8926 6.61227C11.8926 6.61227 15.8101 3.60594 18 2M1 11.8002V4.2002C1 3.08009 1 2.51962 1.21799 2.0918C1.40973 1.71547 1.71547 1.40973 2.0918 1.21799C2.51962 1 3.08009 1 4.2002 1H15.8002C16.9203 1 17.4796 1 17.9074 1.21799C18.2837 1.40973 18.5905 1.71547 18.7822 2.0918C19 2.5192 19 3.07899 19 4.19691V11.8036C19 12.9215 19 13.4805 18.7822 13.9079C18.5905 14.2842 18.2837 14.5905 17.9074 14.7822C17.48 15 16.921 15 15.8031 15H4.19691C3.07899 15 2.5192 15 2.0918 14.7822C1.71547 14.5905 1.40973 14.2842 1.21799 13.9079C1 13.4801 1 12.9203 1 11.8002Z" stroke="url(#paint1_linear_30_40)" stroke-width="2" stroke-linecap="round" stroke-linejoin="round"/>
<defs>
<linearGradient id="paint0_linear_30_40" x1="18" y1="1.5" x2="-3.65906e-07" y2="14.5" gradientUnits="userSpaceOnUse">
<stop stop-color="#211F42"/>
<stop offset="0.370192" stop-color="#57C0C8"/>
<stop offset="0.668269" stop-color="#855991"/>
<stop offset="1" stop-color="#ED4B62"/>
</linearGradient>
<linearGradient id="paint1_linear_30_40" x1="18" y1="1.5" x2="-3.65906e-07" y2="14.5" gradientUnits="userSpaceOnUse">
<stop stop-color="#211F42"/>
<stop offset="0.370192" stop-color="#57C0C8"/>
<stop offset="0.668269" stop-color="#855991"/>
<stop offset="1" stop-color="#ED4B62"/>
</linearGradient>
</defs>
</svg>
