<svg width="242" height="274" viewBox="0 0 242 274" fill="none" xmlns="http://www.w3.org/2000/svg">
<g clip-path="url(#clip0_19_190)">
<path opacity="0.25" d="M240.611 37.487L182.836 14.4731C181.7 14.0103 180.395 14.5783 179.954 15.7143L172.211 35.173L171.685 36.4773L160.765 63.8667L158.703 69.0627L160.113 12.2432C160.134 11.0231 159.166 9.99234 157.946 9.9713L95.7733 8.43564C94.5529 8.4146 93.522 9.38228 93.501 10.6024L92.2175 62.3942L92.0702 67.9899L91.5232 66.3911L90.4291 63.2146L87.8202 55.6204L80.4352 34.016L73.6604 14.1996C73.2606 13.0426 71.9983 12.4115 70.8411 12.8112L12.0137 32.9221C10.8565 33.3218 10.2254 34.584 10.6251 35.741L22.4284 70.2408L24.7849 77.1618L27.3938 84.756L29.9186 92.1187L51.0847 153.987L54.7877 164.8L57.3966 172.394L60.742 182.155L79.762 237.733L84.7905 252.438L87.3363 259.885V260.453C87.3152 261.147 87.6308 261.757 88.1148 262.178L91.5653 272.254C91.9651 273.411 93.2274 274.042 94.3846 273.642L122.136 264.155L146.437 273.832C147.573 274.295 148.878 273.727 149.32 272.591L152.749 263.987C153.422 263.608 153.885 262.935 153.906 262.135V260.999L157.062 253.153L157.588 251.849L174.673 208.976L176.945 203.254L191.357 167.114L195.481 156.743L195.565 156.511L216.479 104.025L222.643 88.5425L226.304 79.3706L229.755 70.7036L241.832 40.4111C242.295 39.2751 241.726 37.9708 240.59 37.5291L240.611 37.487Z" fill="#EDC980"/>
<path d="M60.3276 4.41032L1.49988 24.5254C0.33443 24.9239 -0.287249 26.1916 0.111319 27.3568L81.0065 263.864C81.4051 265.029 82.673 265.651 83.8384 265.252L142.666 245.137C143.832 244.739 144.453 243.471 144.055 242.306L63.1595 5.79866C62.7609 4.6334 61.493 4.01181 60.3276 4.41032Z" fill="#FFF7E6"/>
<path d="M69.9344 25.5915L6.88623 47.1497L14.28 68.7661L77.3281 47.2079L69.9344 25.5915Z" fill="#6927FF"/>
<path d="M73.7238 36.6245L77.3427 47.1848L14.2863 68.7472L6.90137 47.1427L17.4634 43.5245C19.5463 49.625 26.1949 52.8857 32.2964 50.782L73.7238 36.6035V36.6245Z" fill="#5F23E6"/>
<path d="M79.9266 54.802L16.8784 76.3602L24.2721 97.9766L87.3203 76.4185L79.9266 54.802Z" fill="#844FFF"/>
<path d="M83.7179 65.8441L87.3368 76.4044L24.3015 97.9668L16.9165 76.3623L27.4785 72.7441C29.5614 78.8447 36.21 82.1053 42.3116 80.0017L83.739 65.8441H83.7179Z" fill="#753AFA"/>
<path d="M89.9183 84.0125L26.8701 105.571L34.2638 127.187L97.312 105.629L89.9183 84.0125Z" fill="#9669FF"/>
<path d="M93.7116 95.0638L97.3304 105.624L34.2951 127.186L26.9102 105.582L37.4721 101.964C39.5551 108.064 46.2037 111.325 52.3052 109.221L93.7326 95.0427L93.7116 95.0638Z" fill="#8857FA"/>
<path d="M99.9104 113.244L36.8623 134.802L44.256 156.419L107.304 134.861L99.9104 113.244Z" fill="#B08FFF"/>
<path d="M103.706 124.283L107.325 134.844L44.2893 156.406L36.9043 134.802L47.4663 131.183C49.5492 137.284 56.1978 140.545 62.2994 138.441L103.727 124.262L103.706 124.283Z" fill="#9D7BF0"/>
<path d="M109.902 142.455L46.854 164.013L54.2477 185.629L117.296 164.071L109.902 142.455Z" fill="#BCA1FF"/>
<path d="M113.699 153.482L117.318 164.042L54.2829 185.605L46.8979 164L57.4599 160.382C59.5429 166.483 66.1915 169.743 72.293 167.64L113.72 153.461L113.699 153.482Z" fill="#AF91F7"/>
<path d="M119.908 171.666L56.8604 193.224L64.2541 214.841L127.302 193.283L119.908 171.666Z" fill="#D4C2FF"/>
<path d="M123.694 182.702L127.312 193.262L64.2771 214.824L56.8921 193.22L67.4541 189.602C69.537 195.702 76.1856 198.963 82.2872 196.859L123.715 182.681L123.694 182.702Z" fill="#BFAAF0"/>
<path d="M129.9 200.877L66.8521 222.435L74.2458 244.051L137.294 222.493L129.9 200.877Z" fill="#E2D6FF"/>
<path d="M133.687 211.921L137.306 222.482L74.2707 244.044L66.8857 222.44L77.4477 218.821C79.5307 224.922 86.1793 228.182 92.2808 226.079L133.708 211.9L133.687 211.921Z" fill="#D4C6F7"/>
<path d="M147.406 1.55489L85.252 0.0144262C84.0207 -0.0160923 82.9977 0.957206 82.9672 2.18835L76.772 252.067C76.7415 253.298 77.715 254.321 78.9463 254.351L141.1 255.892C142.331 255.922 143.354 254.949 143.385 253.718L149.58 3.83933C149.61 2.60819 148.637 1.58541 147.406 1.55489Z" fill="#FFF7E6"/>
<path d="M149.081 24.7584L82.4683 23.1074L81.902 45.946L148.515 47.597L149.081 24.7584Z" fill="#837DFF"/>
<path d="M148.793 36.4139L148.52 47.5843L81.9077 45.9434L82.4758 23.1188L93.6479 23.3923C93.4796 29.8295 98.5923 35.1938 105.03 35.3621L148.793 36.456V36.4139Z" fill="#7069FF"/>
<path d="M148.316 55.6112L81.7036 53.9602L81.1374 76.7988L147.75 78.4498L148.316 55.6112Z" fill="#8F8AFF"/>
<path d="M148.015 67.2747L147.741 78.445L81.1294 76.8042L81.6975 53.9796L92.8696 54.2531C92.7013 60.6903 97.814 66.0545 104.252 66.2228L148.015 67.3167V67.2747Z" fill="#807AFF"/>
<path d="M147.551 86.4855L80.9385 84.8345L80.3722 107.673L146.985 109.324L147.551 86.4855Z" fill="#9B96FF"/>
<path d="M147.258 98.1562L146.984 109.327L80.3721 107.686L80.9401 84.8611L92.1123 85.1346C91.944 91.5718 97.0566 96.9361 103.495 97.1044L147.258 98.1983V98.1562Z" fill="#928CFF"/>
<path d="M146.765 117.359L80.1528 115.708L79.5866 138.547L146.199 140.198L146.765 117.359Z" fill="#A5A1FF"/>
<path d="M146.479 129.017L146.206 140.187L79.5938 138.546L80.1618 115.722L91.334 115.995C91.1656 122.432 96.2783 127.797 102.717 127.965L146.479 129.059V129.017Z" fill="#9894FF"/>
<path d="M146.022 148.213L79.4092 146.562L78.8429 169.4L145.456 171.051L146.022 148.213Z" fill="#B3B0FF"/>
<path d="M145.722 159.877L145.448 171.048L78.8364 169.407L79.4045 146.582L90.5766 146.856C90.4083 153.293 95.521 158.657 101.959 158.825L145.722 159.919V159.877Z" fill="#9F9CFF"/>
<path d="M145.257 179.087L78.644 177.436L78.0778 200.275L144.69 201.925L145.257 179.087Z" fill="#C2BFFF"/>
<path d="M144.964 190.759L144.691 201.929L78.0786 200.288L78.6467 177.464L89.8188 177.737C89.6505 184.174 94.7632 189.539 101.201 189.707L144.964 190.801V190.759Z" fill="#A9A6FF"/>
<path d="M144.471 209.961L77.8584 208.31L77.2922 231.148L143.905 232.799L144.471 209.961Z" fill="#D8D6FF"/>
<path d="M144.186 221.619L143.912 232.79L77.3003 231.149L77.8684 208.324L89.0405 208.598C88.8722 215.035 93.9849 220.399 100.423 220.567L144.186 221.661V221.619Z" fill="#C3BFFF"/>
<path d="M230.087 29.0705L172.328 6.06587C171.184 5.61012 169.887 6.16813 169.431 7.31221L76.915 239.522C76.4592 240.666 77.0173 241.963 78.1616 242.418L135.92 265.423C137.064 265.879 138.362 265.321 138.817 264.177L231.333 31.9673C231.789 30.8232 231.231 29.5263 230.087 29.0705Z" fill="#FFF7E6"/>
<path d="M223.584 51.385L161.682 26.73L153.226 47.9536L215.128 72.6087L223.584 51.385Z" fill="#BF81FF"/>
<path d="M219.256 62.2679L215.133 72.6389L153.233 47.9842L161.691 26.7584L172.064 30.8815C169.687 36.8769 172.59 43.6506 178.586 46.0488L219.256 62.2469V62.2679Z" fill="#B56EFF"/>
<path d="M212.154 80.0832L150.252 55.4282L141.796 76.6518L203.698 101.307L212.154 80.0832Z" fill="#C996FF"/>
<path d="M207.831 90.9405L203.707 101.312L141.808 76.6568L150.266 55.431L160.639 59.5541C158.261 65.5495 161.165 72.3233 167.161 74.7214L207.831 90.9195V90.9405Z" fill="#C38AFF"/>
<path d="M200.733 108.762L138.831 84.1069L130.375 105.331L192.277 129.986L200.733 108.762Z" fill="#D1A6FF"/>
<path d="M196.407 119.634L192.283 130.005L130.384 105.351L138.842 84.1248L149.215 88.248C146.837 94.2434 149.741 101.017 155.737 103.415L196.407 119.613V119.634Z" fill="#CA99FF"/>
<path d="M189.304 137.46L127.401 112.805L118.946 134.029L180.848 158.684L189.304 137.46Z" fill="#DABAFF"/>
<path d="M184.982 148.307L180.859 158.678L118.959 134.023L127.417 112.797L137.79 116.921C135.413 122.916 138.316 129.69 144.312 132.088L184.982 148.286V148.307Z" fill="#D3ADFF"/>
<path d="M177.876 166.15L115.973 141.495L107.517 162.719L169.42 187.374L177.876 166.15Z" fill="#E4CCFF"/>
<path d="M173.537 177.001L169.413 187.372L107.514 162.717L115.972 141.491L126.344 145.614C123.967 151.61 126.87 158.383 132.867 160.782L173.537 176.98V177.001Z" fill="#DCBDFF"/>
<path d="M166.454 194.829L104.552 170.174L96.0959 191.398L157.998 216.053L166.454 194.829Z" fill="#EAD9FF"/>
<path d="M162.112 205.673L157.989 216.044L96.0894 191.39L104.547 170.164L114.92 174.287C112.542 180.282 115.446 187.056 121.442 189.454L162.112 205.652V205.673Z" fill="#E4CFFF"/>
<path d="M155.024 223.527L93.1221 198.872L84.6662 220.096L146.569 244.751L155.024 223.527Z" fill="#EEE0FF"/>
<path d="M150.688 234.367L146.564 244.738L84.6646 220.083L93.1226 198.858L103.495 202.981C101.118 208.976 104.021 215.75 110.018 218.148L150.688 234.346V234.367Z" fill="#E5CFFF"/>
</g>
<defs>
<clipPath id="clip0_19_190">
<rect width="242" height="274" fill="white"/>
</clipPath>
</defs>
</svg>
