<svg width="674" height="137" viewBox="0 0 674 137" fill="none" xmlns="http://www.w3.org/2000/svg">
<g clip-path="url(#clip0_19_266)">
<path opacity="0.25" d="M657.323 123.701L657.323 20.6512L647.776 20.6512L642.981 20.6512L630.265 20.6512L625.47 20.6512L612.754 20.6512L607.959 20.6512L595.243 20.6512L590.49 20.6512L577.607 20.6512L572.813 20.6512L560.096 20.6512L555.302 20.6512L542.586 20.6512L537.791 20.6512L535.289 20.6512L525.075 20.6512L520.28 20.6512L507.397 20.6512L502.644 20.6512L489.886 20.6512L485.133 20.6512L472.376 20.6512L467.623 20.6512L454.865 20.6512L450.112 20.6512L437.229 20.6512L432.434 20.6512L419.718 20.6512L414.923 20.6512L402.207 20.6512L397.413 20.6512L384.696 20.6512L379.902 20.6512L367.019 20.6512L362.266 20.6512L349.508 20.6512L344.755 20.6512L331.997 20.6512L327.244 20.6512L314.486 20.6512L309.733 20.6512L296.85 20.6512L292.056 20.6512L279.34 20.6512L274.545 20.6512L261.829 20.6512L257.034 20.6512L244.318 20.6512L239.523 20.6512L226.64 20.6512L221.887 20.6512L209.13 20.6512L204.377 20.6512L191.619 20.6512L186.866 20.6512L174.108 20.6512L169.355 20.6512L156.472 20.6512L151.677 20.6512L138.961 20.6512L134.167 20.6512L121.45 20.6512L116.656 20.6512L103.94 20.6512L99.1449 20.6512L86.2619 20.6512L81.509 20.6512L68.7511 20.6512L63.9982 20.6512L51.2403 20.6512L46.4874 20.6512L33.7294 20.6512L28.9765 20.6512L0.000247431 20.6512L0.000242926 123.701L0.000242345 137L70.7523 137L657.323 137L657.323 123.701Z" fill="#EDC980"/>
<path d="M674 116.349L674 0L16.677 -2.87325e-05L16.677 116.349L674 116.349Z" fill="#FFD581"/>
<path d="M87.4292 116.349L16.7188 116.349L16.7188 -2.33964e-05L551.966 0C415.09 14.4145 191.202 47.5803 87.3875 116.349L87.4292 116.349Z" fill="#FFCB63"/>
<path d="M674 116.308L674 103.049L16.677 103.049L16.677 116.307L674 116.308Z" fill="#F7C86A"/>
<path d="M664.453 30.2334L664.453 0L659.658 -2.0958e-07L659.658 30.2334L664.453 30.2334Z" fill="#F0B23F"/>
<path d="M646.942 30.2334L646.942 0L642.147 -2.0958e-07L642.147 30.2334L646.942 30.2334Z" fill="#F0B23F"/>
<path d="M629.431 30.2334L629.431 0L624.637 -2.0958e-07L624.637 30.2334L629.431 30.2334Z" fill="#F0B23F"/>
<path d="M611.92 44.4001L611.92 0L607.125 -2.0958e-07L607.125 44.4001L611.92 44.4001Z" fill="#F0B23F"/>
<path d="M594.284 30.2334L594.284 0L589.49 -2.0958e-07L589.49 30.2334L594.284 30.2334Z" fill="#F0B23F"/>
<path d="M576.773 30.2334L576.773 0L571.979 -2.0958e-07L571.979 30.2334L576.773 30.2334Z" fill="#F0B23F"/>
<path d="M559.263 30.2334L559.263 0L554.468 -2.0958e-07L554.468 30.2334L559.263 30.2334Z" fill="#F0B23F"/>
<path d="M541.752 44.4001L541.752 0L536.957 -2.0958e-07L536.957 44.4001L541.752 44.4001Z" fill="#F0B23F"/>
<path d="M524.074 30.2334L524.074 0L519.28 -2.0958e-07L519.28 30.2334L524.074 30.2334Z" fill="#F0B23F"/>
<path d="M506.563 30.2334L506.563 0L501.769 -2.0958e-07L501.769 30.2334L506.563 30.2334Z" fill="#F0B23F"/>
<path d="M489.053 30.2334L489.053 0L484.258 -2.0958e-07L484.258 30.2334L489.053 30.2334Z" fill="#F0B23F"/>
<path d="M471.542 44.4001L471.542 0L466.747 -2.0958e-07L466.747 44.4001L471.542 44.4001Z" fill="#F0B23F"/>
<path d="M453.906 30.2334L453.906 0L449.111 -2.0958e-07L449.111 30.2334L453.906 30.2334Z" fill="#F0B23F"/>
<path d="M436.395 30.2334L436.395 0L431.6 -2.0958e-07L431.6 30.2334L436.395 30.2334Z" fill="#F0B23F"/>
<path d="M418.884 30.2334L418.884 0L414.09 -2.0958e-07L414.09 30.2334L418.884 30.2334Z" fill="#F0B23F"/>
<path d="M401.374 44.4001L401.374 0L396.579 -2.0958e-07L396.579 44.4001L401.374 44.4001Z" fill="#F0B23F"/>
<path d="M383.696 30.2334L383.696 0L378.901 -2.0958e-07L378.901 30.2334L383.696 30.2334Z" fill="#F0B23F"/>
<path d="M366.185 30.2334L366.185 0L361.39 -2.0958e-07L361.39 30.2334L366.185 30.2334Z" fill="#F0B23F"/>
<path d="M348.674 30.2334L348.674 0L343.88 -2.0958e-07L343.88 30.2334L348.674 30.2334Z" fill="#F0B23F"/>
<path d="M331.163 44.4001L331.163 0L326.368 -2.09579e-07L326.368 44.4001L331.163 44.4001Z" fill="#F0B23F"/>
<path d="M313.527 30.2334L313.527 0L308.733 -2.0958e-07L308.733 30.2334L313.527 30.2334Z" fill="#F0B23F"/>
<path d="M296.017 30.2334L296.017 0L291.222 -2.09579e-07L291.222 30.2334L296.017 30.2334Z" fill="#F0B23F"/>
<path d="M278.506 30.2334L278.506 0L273.711 -2.0958e-07L273.711 30.2334L278.506 30.2334Z" fill="#F0B23F"/>
<path d="M260.995 44.4001L260.995 0L256.2 -2.0958e-07L256.2 44.4001L260.995 44.4001Z" fill="#F0B23F"/>
<path d="M243.317 30.2334L243.317 0L238.523 -2.09579e-07L238.523 30.2334L243.317 30.2334Z" fill="#F0B23F"/>
<path d="M225.807 30.2334L225.807 0L221.012 -2.0958e-07L221.012 30.2334L225.807 30.2334Z" fill="#F0B23F"/>
<path d="M208.296 30.2334L208.296 0L203.501 -2.0958e-07L203.501 30.2334L208.296 30.2334Z" fill="#F0B23F"/>
<path d="M190.785 44.4001L190.785 0L185.991 -2.0958e-07L185.991 44.4001L190.785 44.4001Z" fill="#F0B23F"/>
<path d="M173.149 30.2334L173.149 0L168.354 -2.0958e-07L168.354 30.2334L173.149 30.2334Z" fill="#F0B23F"/>
<path d="M155.638 30.2334L155.638 0L150.844 -2.0958e-07L150.844 30.2334L155.638 30.2334Z" fill="#F0B23F"/>
<path d="M138.127 30.2334L138.127 0L133.333 -2.09579e-07L133.333 30.2334L138.127 30.2334Z" fill="#F0B23F"/>
<path d="M120.617 44.4001L120.617 0L115.822 -2.09582e-07L115.822 44.4001L120.617 44.4001Z" fill="#F0B23F"/>
<path d="M102.939 30.2334L102.939 0L98.1444 -2.09579e-07L98.1444 30.2334L102.939 30.2334Z" fill="#F0B23F"/>
<path d="M85.4282 30.2334L85.4282 0L80.6336 -2.09582e-07L80.6336 30.2334L85.4282 30.2334Z" fill="#F0B23F"/>
<path d="M67.9175 30.2334L67.9175 0L63.1228 -2.09582e-07L63.1228 30.2334L67.9175 30.2334Z" fill="#F0B23F"/>
<path d="M50.4062 44.4001L50.4062 0L45.6116 -2.09579e-07L45.6116 44.4001L50.4062 44.4001Z" fill="#F0B23F"/>
</g>
<defs>
<clipPath id="clip0_19_266">
<rect width="137" height="674" fill="white" transform="translate(674) rotate(90)"/>
</clipPath>
</defs>
</svg>
