<svg width="143" height="156" viewBox="0 0 143 156" fill="none" xmlns="http://www.w3.org/2000/svg">
<path opacity="0.25" d="M128.665 58.0282C124.284 33.6618 106.099 14.9183 83.0279 9.33436L110.441 9.33436C110.907 9.33436 111.294 8.94388 111.294 8.47529C111.294 8.00671 110.907 7.61622 110.441 7.61622L70.8528 7.61622V5.54663L65.657 5.54663V7.61622L26.9601 7.61622C26.4948 7.61622 26.1071 8.00671 26.1071 8.47529C26.1071 8.94388 26.4948 9.33436 26.9601 9.33436L54.3736 9.33436C31.3029 14.9183 13.0789 33.6227 8.73617 58.0282H6.875V63.2608H12.0708V58.0282H10.481C15.5217 30.8112 38.2823 10.8963 65.5794 9.49056V10.7792H66.51C66.2386 20.3461 63.6019 59.473 40.1047 62.2455C38.9414 62.3626 38.1659 63.456 38.5537 64.5494L51.8921 103.676L53.9471 109.768H53.3267C52.241 109.768 51.3492 110.666 51.3492 111.759V114.219C51.3492 115.313 52.241 116.211 53.3267 116.211H54.3349V145.966H83.0279L83.0279 116.211H84.0361C85.1217 116.211 86.0136 115.313 86.0136 114.219V111.759C86.0136 110.666 85.1217 109.768 84.0361 109.768H83.4157L98.8091 64.5494C98.9642 64.0808 98.9254 63.6513 98.7316 63.2608C98.4601 62.7141 97.9173 62.3236 97.2581 62.2455C72.4037 59.2778 70.8915 15.7384 70.814 9.45151C98.5377 10.4277 121.802 30.4988 126.882 58.0282H125.292V63.2608H130.488V58.0282H128.627H128.665ZM74.8853 66.8923C74.8853 70.3286 72.1323 73.1401 68.6814 73.1401C65.2305 73.1401 62.4775 70.3676 62.4775 66.8923C62.4775 63.7684 64.804 61.1912 67.8284 60.7616V10.7401H69.5344V60.7226C72.5588 61.1521 74.8853 63.7293 74.8853 66.8533V66.8923Z" fill="#EDC980"/>
<path d="M76.153 108.556H47.46L47.46 140.419H76.153V108.556Z" fill="#180838"/>
<path d="M91.934 59.0418L76.5406 104.26L47.0721 104.26L45.017 98.1687L31.6786 59.0418C31.3297 57.9484 32.1051 56.8551 33.2296 56.7379C60.0227 53.5359 59.6737 3.16296 59.6737 3.16296L60.9533 3.16296L60.9533 55.2541C57.9289 55.6836 55.6024 58.2608 55.6024 61.3847C55.6024 64.821 58.3942 67.6326 61.8063 67.6326C65.2185 67.6326 68.0102 64.8601 68.0102 61.3847C68.0102 58.2608 65.6838 55.6836 62.6594 55.2541L62.6594 3.16296L63.9389 3.16296C63.9389 3.16296 63.59 53.5359 90.3831 56.7379C91.0422 56.816 91.5851 57.2065 91.8565 57.7532C92.0504 58.1437 92.0891 58.6123 91.934 59.0418Z" fill="#E8DEFF"/>
<path d="M77.1612 104.26H46.4907C45.3985 104.26 44.5132 105.152 44.5132 106.252V108.673C44.5132 109.773 45.3985 110.664 46.4907 110.664H77.1612C78.2534 110.664 79.1387 109.773 79.1387 108.673V106.252C79.1387 105.152 78.2534 104.26 77.1612 104.26Z" fill="#180838"/>
<path d="M91.9341 59.0418L76.5407 104.26H47.0721L45.0171 98.1687C59.2861 91.9599 82.8609 78.9176 91.8566 57.7532C92.0504 58.1437 92.0892 58.6122 91.9341 59.0418Z" fill="#DFD1FF"/>
<path d="M2.59782 54.0045C2.59782 54.0045 2.4815 54.0045 2.44273 54.0045C1.97743 53.9264 1.66724 53.4578 1.74479 52.9892C6.78546 23.5074 32.0664 2.06958 61.8063 2.06958C91.5463 2.06958 116.827 23.4683 121.868 52.9892C121.945 53.4578 121.635 53.9264 121.17 54.0045C120.705 54.0826 120.239 53.7702 120.162 53.3016C115.276 24.6398 90.732 3.82678 61.8063 3.82678C32.8806 3.82678 8.37521 24.6398 3.45086 53.3016C3.37331 53.7312 3.02434 54.0435 2.59782 54.0435V54.0045Z" fill="#E34B93"/>
<path d="M103.527 3.82679L20.085 3.82679C19.6197 3.82679 19.2319 3.4363 19.2319 2.96772C19.2319 2.49913 19.6197 2.10864 20.085 2.10864L103.527 2.10864C103.993 2.10864 104.381 2.49913 104.381 2.96772C104.381 3.4363 103.993 3.82679 103.527 3.82679Z" fill="#E34B93"/>
<path d="M63.9004 0L58.7046 0V5.23254L63.9004 5.23254V0Z" fill="#E34B93"/>
<path d="M5.19577 52.5206H0L0 57.7532H5.19577L5.19577 52.5206Z" fill="#E34B93"/>
<path d="M123.613 52.5206H118.417V57.7532H123.613V52.5206Z" fill="#E34B93"/>
</svg>
