<svg width="20" height="20" viewBox="0 0 20 20" fill="none" xmlns="http://www.w3.org/2000/svg">
<path opacity="0.32" fill-rule="evenodd" clip-rule="evenodd" d="M5.64593 1C6.46374 1 7.19916 1.4979 7.50289 2.25722L8.55715 4.89288C8.82998 5.57495 8.70693 6.35169 8.23664 6.91603L7.66925 7.5969C7.00704 8.39155 7.06004 9.56005 7.79148 10.2915L9.70852 12.2085C10.44 12.94 11.6084 12.993 12.4031 12.3307L13.084 11.7634C13.6483 11.2931 14.4251 11.17 15.1071 11.4428L17.7428 12.4971C18.5021 12.8008 19 13.5363 19 14.3541V17.1053C19 18.1517 18.1517 19 17.1053 19C8.21057 19 1 11.7894 1 2.89474C1 1.8483 1.8483 1 2.89474 1H5.64593Z" fill="url(#paint0_linear_30_50)"/>
<path d="M7.50246 2.25722C7.19873 1.4979 6.46332 1 5.64551 1H2.89474C1.8483 1 1 1.8481 1 2.89453C1 11.7892 8.21078 19.0002 17.1055 19.0002C18.1519 19.0002 19 18.1516 19 17.1052L19.0004 14.354C19.0004 13.5362 18.5024 12.8009 17.7431 12.4971L15.1071 11.4429C14.4251 11.1701 13.6485 11.2929 13.0842 11.7632L12.4036 12.3307C11.6089 12.9929 10.4395 12.94 9.70806 12.2085L7.79185 10.2913C7.06042 9.55983 7.00673 8.39154 7.66895 7.59688L8.23633 6.91622C8.70661 6.35187 8.83002 5.57505 8.55719 4.89299L7.50246 2.25722Z" stroke="url(#paint1_linear_30_50)" stroke-width="2" stroke-linecap="round" stroke-linejoin="round"/>
<defs>
<linearGradient id="paint0_linear_30_50" x1="18" y1="1.64286" x2="-2.81952" y2="13.3378" gradientUnits="userSpaceOnUse">
<stop stop-color="#211F42"/>
<stop offset="0.370192" stop-color="#57C0C8"/>
<stop offset="0.668269" stop-color="#855991"/>
<stop offset="1" stop-color="#ED4B62"/>
</linearGradient>
<linearGradient id="paint1_linear_30_50" x1="18.0004" y1="1.64286" x2="-2.81951" y2="13.3381" gradientUnits="userSpaceOnUse">
<stop stop-color="#211F42"/>
<stop offset="0.370192" stop-color="#57C0C8"/>
<stop offset="0.668269" stop-color="#855991"/>
<stop offset="1" stop-color="#ED4B62"/>
</linearGradient>
</defs>
</svg>
