<svg width="221" height="166" viewBox="0 0 221 166" fill="none" xmlns="http://www.w3.org/2000/svg">
<g clip-path="url(#clip0_19_147)">
<path opacity="0.25" d="M221 13.6263C221 13.6263 221 13.6058 221 13.5955V13.5031C221 8.29697 216.796 4.09717 211.606 4.09717H14.5436C14.3792 4.09717 14.2147 4.1177 14.0605 4.12797C13.9166 4.12797 13.7728 4.13824 13.6391 4.15878C12.2824 4.29227 10.9977 4.69274 9.86707 5.36019C7.57505 6.67455 5.92027 8.92335 5.36525 11.5931C5.35498 11.665 5.33442 11.7266 5.32414 11.7985C5.28303 12.0142 5.25219 12.2401 5.22136 12.466C5.18025 12.8459 5.14941 13.2258 5.14941 13.616V120.367V129.639C5.14941 134.825 9.35316 139.045 14.5436 139.045H86.6137L85.5551 145.966L83.2528 160.958C80.8683 161.4 79.0593 163.484 79.0593 165.99H147.09C147.09 163.474 145.281 161.4 142.897 160.958L140.594 145.966L139.536 139.045H211.616C216.807 139.045 221.01 134.825 221.01 129.639V120.367V13.6263H221Z" fill="#EDC980"/>
<path d="M138.518 161.893H77.3428L82.6771 127.144H133.184L138.518 161.893Z" fill="#E8DEFF"/>
<path d="M215.861 9.40591V125.532C215.861 130.718 211.657 134.938 206.467 134.938H9.40447C4.21403 134.938 0 130.718 0 125.532V9.40591C0 5.90437 1.90145 2.87517 4.71765 1.26302C6.1052 0.451812 7.70859 0 9.40447 0H206.467C211.657 0 215.861 4.1998 215.861 9.40591Z" fill="#E8DEFF"/>
<path d="M9.52781 0H206.333C211.596 0 215.861 4.26141 215.861 9.51887V116.26H0V9.51887C0 4.27168 4.26542 0 9.52781 0Z" fill="#3D0B2D"/>
<path d="M113.234 124.803C113.234 127.729 110.86 130.101 107.93 130.101C105.001 130.101 102.627 127.729 102.627 124.803C102.627 121.876 105.001 119.504 107.93 119.504C110.86 119.504 113.234 121.876 113.234 124.803Z" fill="#D9D9D9"/>
<path d="M9.52781 0H206.333C211.596 0 215.861 4.26141 215.861 9.51887V116.26H0V9.51887C0 4.27168 4.26542 0 9.52781 0Z" fill="#180838"/>
<path d="M135.445 141.859H80.416L81.4747 134.938H134.386L135.445 141.859Z" fill="#DFD1FF"/>
<path d="M141.941 161.893H73.9204C73.9204 159.059 76.2227 156.758 79.0595 156.758H136.822C139.659 156.758 141.962 159.059 141.962 161.893H141.941Z" fill="#DFD1FF"/>
<path opacity="0.23" d="M148.108 134.938H9.40447C4.21403 134.938 0 130.718 0 125.532V9.40595C0 5.90441 1.90145 2.87521 4.71765 1.26306C9.41475 25.8971 30.454 117.831 148.097 134.938H148.108Z" fill="#CDB8FF"/>
<path d="M207.289 8.646H8.56152V107.613H207.289V8.646Z" fill="white"/>
<path d="M104.666 55.58C106.967 45.7623 100.867 35.9398 91.0398 33.6407C81.2129 31.3416 71.3811 37.4366 69.0799 47.2542C66.7786 57.0719 72.8793 66.8944 82.7062 69.1935C92.5331 71.4926 102.365 65.3976 104.666 55.58Z" fill="#837DFF"/>
<path d="M125.455 68.2512C134.762 64.3503 139.141 53.6504 135.237 44.3523C131.332 35.0542 120.622 30.6789 111.315 34.5798C102.009 38.4807 97.6292 49.1807 101.534 58.4788C105.438 67.7769 116.148 72.1521 125.455 68.2512Z" fill="#BF81FF"/>
<path opacity="0.57" d="M103.202 86.6043C113.295 86.6043 121.477 78.4302 121.477 68.3469C121.477 58.2637 113.295 50.0896 103.202 50.0896C93.1095 50.0896 84.9277 58.2637 84.9277 68.3469C84.9277 78.4302 93.1095 86.6043 103.202 86.6043Z" fill="#DF2935"/>
<path d="M23.9273 8.646H8.56152V17.0148V107.613H23.9273V17.0148H195.921V30.6102H177.698V56.0042H195.921V107.613H207.299V17.0148V12.8355V8.646H23.9273Z" fill="#7D7B82"/>
<path d="M71.0317 11.1207H25.2119V14.0678H71.0317V11.1207Z" fill="#908D9C"/>
<path d="M125.331 11.1207H79.5112V14.0678H125.331V11.1207Z" fill="#908D9C"/>
<path d="M179.62 11.1207H133.8V14.0678H179.62V11.1207Z" fill="#908D9C"/>
<path d="M15.386 21.7588H10.3188V26.8211H15.386V21.7588Z" fill="#676373"/>
<path d="M22.3235 21.7588H17.2563V26.8211H22.3235V21.7588Z" fill="#676373"/>
<path d="M15.386 28.8851H10.3188V33.9475H15.386V28.8851Z" fill="#676373"/>
<path d="M22.3235 28.8851H17.2563V33.9475H22.3235V28.8851Z" fill="#676373"/>
<path d="M15.386 36.0011H10.3188V41.0635H15.386V36.0011Z" fill="#676373"/>
<path d="M22.3235 36.0011H17.2563V41.0635H22.3235V36.0011Z" fill="#676373"/>
<path d="M15.386 43.1172H10.3188V48.1795H15.386V43.1172Z" fill="#676373"/>
<path d="M22.3235 43.1172H17.2563V48.1795H22.3235V43.1172Z" fill="#676373"/>
<path d="M15.386 50.2333H10.3188V55.2956H15.386V50.2333Z" fill="#676373"/>
<path d="M22.3235 50.2333H17.2563V55.2956H22.3235V50.2333Z" fill="#676373"/>
<path d="M15.386 57.3492H10.3188V62.4116H15.386V57.3492Z" fill="#676373"/>
<path d="M22.3235 57.3492H17.2563V62.4116H22.3235V57.3492Z" fill="#676373"/>
<path d="M20.2681 66.6423H10.3188V76.5822H20.2681V66.6423Z" fill="#FFD581"/>
<path d="M22.8066 71.1296H12.8574V81.0695H22.8066V71.1296Z" fill="#837DFF"/>
<path opacity="0.43" d="M34.4931 107.613H17.1128L77.9798 8.646H95.3498L34.4931 107.613Z" fill="white"/>
<path opacity="0.43" d="M110.603 107.613H74.7319L135.589 8.646H171.47L110.603 107.613Z" fill="white"/>
</g>
<defs>
<clipPath id="clip0_19_147">
<rect width="221" height="166" fill="white"/>
</clipPath>
</defs>
</svg>
